<svg width="200" height="36" viewBox="0 0 200 36" fill="none" xmlns="http://www.w3.org/2000/svg">
<path d="M20.2262 12.0124V28.0398H16.1836V12.0124H12.13V28.0398H8.08524V8.00824H28.3071V28.0398H24.2622V12.0124H20.2262ZM4.04704 4.00415H16.1771V0H0V35.9716H0.046306V36H16.1352V31.9959H4.04477L4.04704 4.00415ZM36.4033 0H20.2262V4.00415H32.3563V31.9959H20.2262V36H36.3393V35.9716H36.4033V0Z" fill="#F65E1E"/>
<path d="M69.0505 31.8292L75.5232 8.87262V31.8292H82.1557V3.18286H71.4878L65.8142 23.7292L60.2605 3.18286H49.4727V31.8292H56.1052V8.91213L62.6178 31.8292H69.0505Z" fill="black"/>
<path d="M98.6658 18.5531C90.3152 19.1853 84.362 20.8843 84.362 26.0999C84.362 29.9721 87.7182 32.3429 91.7936 32.3429C94.8701 32.3429 97.4272 31.5131 99.0254 29.2609L99.1053 31.8292H105.578C105.258 30.5253 105.099 27.9965 105.099 25.6653V23.4526L105.178 18.8297C105.298 12.3892 101.782 9.89993 95.5893 9.89993C89.1965 9.89993 85.3608 13.456 85.0412 17.4468H91.1943C91.4739 15.3921 92.9123 14.3253 95.0299 14.3253C97.4272 14.3253 98.6658 15.1946 98.6658 17.7234V18.5531ZM98.8256 22.8994C98.8256 26.8112 96.8279 27.9175 94.1909 27.9175C92.4728 27.9175 91.1543 27.0087 91.1543 25.6258C91.1543 23.2946 94.2308 22.8204 98.8256 22.3858V22.8994Z" fill="black"/>
<path d="M122.426 3.18286V13.456C121.028 11.1248 118.151 10.0975 115.834 10.0975C110.28 10.0975 106.364 14.2463 106.364 21.2004C106.364 28.1546 110.28 32.3429 115.834 32.3429C118.151 32.3429 121.028 31.3155 122.426 28.9843V31.8292H129.019V3.18286H122.426ZM117.991 15.1551C120.588 15.1551 122.746 16.8146 122.746 21.2004C122.746 25.5863 120.588 27.2853 117.991 27.2853C115.394 27.2853 113.197 25.1516 113.197 21.2004C113.197 17.2492 115.394 15.1551 117.991 15.1551Z" fill="black"/>
<path d="M146.814 3.18286V13.456C145.416 11.1248 142.539 10.0975 140.222 10.0975C134.668 10.0975 130.752 14.2463 130.752 21.2004C130.752 28.1546 134.668 32.3429 140.222 32.3429C142.539 32.3429 145.416 31.3155 146.814 28.9843V31.8292H153.407V3.18286H146.814ZM142.379 15.1551C144.976 15.1551 147.134 16.8146 147.134 21.2004C147.134 25.5863 144.976 27.2853 142.379 27.2853C139.782 27.2853 137.585 25.1516 137.585 21.2004C137.585 17.2492 139.782 15.1551 142.379 15.1551Z" fill="black"/>
<path d="M166.647 14.997C169.244 14.997 171.322 16.5775 171.322 21.1214C171.322 25.5863 169.324 27.2853 166.647 27.2853C163.97 27.2853 161.973 25.5863 161.973 21.1214C161.973 16.5775 164.05 14.997 166.647 14.997ZM166.647 9.93945C160.694 9.93945 155.26 13.4165 155.26 21.1214C155.26 28.8263 160.694 32.3429 166.647 32.3429C172.601 32.3429 178.035 28.8263 178.035 21.1214C178.035 13.4165 172.601 9.93945 166.647 9.93945Z" fill="black"/>
<path d="M199.68 10.5716H192.808L188.373 16.3009L184.098 10.5716H176.626L184.577 21.2004L176.307 31.8292H183.299L187.973 25.7443L192.568 31.8292H200L191.769 20.8448L199.68 10.5716Z" fill="black"/>
</svg>
