<svg width="200" height="45" viewBox="0 0 200 45" fill="none" xmlns="http://www.w3.org/2000/svg">
<g clip-path="url(#clip0_2_19)">
<path d="M45.5919 22.5H34.1939V0L22.7959 11.25V33.75H11.398V22.5L0 33.75V45H11.398L22.7959 33.75H34.1939L45.5919 22.5Z" fill="white"/>
<path d="M56.7975 33.8151V11.2456H61.4436V29.8136H71.5309V33.8127H56.795L56.7975 33.8151ZM78.2333 33.8151V17.5364H73.7692V33.8151H78.2333ZM79.0282 12.0974C79.0282 10.4642 77.6694 9.13463 76 9.13463C74.3309 9.13463 72.9718 10.4642 72.9718 12.0974C72.9718 13.7306 74.3309 15.0603 76 15.0603C77.6694 15.0603 79.0282 13.7306 79.0282 12.0974ZM90.2025 39.9038C95.0694 39.9038 98.882 36.6576 98.882 32.5131V16.0232H94.7821V18.4968L94.1667 17.8345C93.005 16.5826 90.8666 15.707 88.9667 15.707C84.1359 15.707 80.7617 19.2645 80.7617 24.3572C80.7617 29.4499 84.2744 32.8669 89.1127 32.8669C90.7513 32.8669 92.6615 32.1569 93.8666 31.1007L94.4565 30.5838V32.8266C94.4565 35.8446 92.7001 36.4619 90.0615 36.4619H83.8482L83.3359 39.9013L90.2025 39.9038ZM94.4512 22.7842V25.6542C94.4512 28.1252 93.0025 29.3246 90.0204 29.3246C87.0386 29.3246 85.5513 28.1228 85.5513 25.6542V22.7842C85.5513 20.3131 87.0129 19.1139 90.0204 19.1139C93.0282 19.1139 94.4512 20.3156 94.4512 22.7842ZM119.346 33.8151V22.5383C119.346 18.6247 116.603 15.6719 112.962 15.6719C110.754 15.6719 108.764 16.5249 107.362 18.0753L106.744 18.7577V11.2456H102.279V33.8151H106.744V22.714C106.744 20.4084 108.11 19.287 110.921 19.287C113.731 19.287 114.915 20.3206 114.915 22.5383V33.8151H119.344H119.346ZM151.105 27.1193H146.433C146.18 29.7736 145.041 30.7243 142.21 30.7243C139.38 30.7243 137.997 29.3696 137.997 26.457V23.3412C137.997 20.4787 139.336 19.144 142.21 19.144C145.084 19.144 146.18 20.0447 146.433 22.6788H151.105C150.164 18.4064 146.756 15.6694 142.321 15.6694C137.103 15.6694 133.169 19.6282 133.169 24.879C133.169 30.1299 137.103 34.1587 142.321 34.1587C146.759 34.1587 150.167 31.4093 151.105 27.1144V27.1193ZM165.851 32.3978L166.441 31.8809V34.0735H170.869V16.0934H166.769V18.567L166.154 17.9047C164.992 16.6528 162.854 15.7773 160.954 15.7773C156.277 15.7773 152.749 19.6934 152.749 24.8865C152.749 30.0796 156.495 34.1615 161.1 34.1615C162.738 34.1615 164.649 33.4514 165.854 32.3953L165.851 32.3978ZM166.441 22.857V26.9513C166.441 29.4223 164.992 30.6216 162.01 30.6216C159.028 30.6216 157.541 29.4198 157.541 26.9513V22.857C157.541 20.3858 159.003 19.1867 162.01 19.1867C165.018 19.1867 166.441 20.3884 166.441 22.857ZM189.087 28.1054C189.087 25.4183 186.987 23.6096 183.472 23.2684L179.931 22.9523C178.431 22.7892 177.431 22.4179 177.431 21.1385V20.6142C177.431 18.6222 180 18.6222 180.844 18.6222C182.967 18.6222 184.251 19.0111 184.42 20.9328H188.726C188.049 17.8621 184.808 15.6719 180.844 15.6719C176.879 15.6719 173.256 18.3839 173.256 21.5925C173.256 24.312 175.574 26.2512 179.161 26.5348L181.931 26.7807C183.772 26.9488 184.836 27.2924 184.836 28.5593V29.1891C184.836 31.0052 182.638 31.2161 180.987 31.2161C178.464 31.2161 177.177 30.8397 176.946 28.7649H172.628C173.313 31.9637 176.713 34.1639 181.059 34.1639C185.633 34.1639 189.082 31.5572 189.082 28.1026L189.087 28.1054ZM199.995 33.9907V30.2025H197.436C196.238 30.2025 195.554 29.5401 195.554 28.3863V19.4978H199.38V16.0232H195.556V9.98461L191.128 11.2456V28.3485C191.128 31.8809 193.5 33.9882 197.477 33.9882H200L199.995 33.9907ZM131.479 33.9907V30.2025H128.918C127.721 30.2025 127.036 29.5401 127.036 28.3863V19.4978H130.862V16.0232H127.038V9.98461L122.61 11.2456V28.3485C122.61 31.8809 124.982 33.9882 128.959 33.9882H131.482L131.479 33.9907Z" fill="white"/>
</g>
<defs>
<clipPath id="clip0_2_19">
<rect width="200" height="45" fill="white"/>
</clipPath>
</defs>
</svg>
