<svg width="200" height="36" viewBox="0 0 200 36" fill="none" xmlns="http://www.w3.org/2000/svg">
<path d="M20.2262 12.0124V28.0398H16.1836V12.0124H12.13V28.0398H8.08524V8.00824H28.3071V28.0398H24.2622V12.0124H20.2262ZM4.04704 4.00415H16.1771V0H0V35.9716H0.046306V36H16.1352V31.9959H4.04477L4.04704 4.00415ZM36.4033 0H20.2262V4.00415H32.3563V31.9959H20.2262V36H36.3393V35.9716H36.4033V0Z" fill="white"/>
<path d="M69.0508 31.8293L75.5235 8.87268V31.8293H82.156V3.18292H71.4881L65.8145 23.7293L60.2607 3.18292H49.4729V31.8293H56.1054V8.91219L62.6181 31.8293H69.0508Z" fill="white"/>
<path d="M98.6661 18.5532C90.3155 19.1854 84.3622 20.8844 84.3622 26.1C84.3622 29.9722 87.7185 32.3429 91.7939 32.3429C94.8704 32.3429 97.4275 31.5132 99.0257 29.261L99.1056 31.8293H105.578C105.259 30.5254 105.099 27.9966 105.099 25.6654V23.4527L105.179 18.8298C105.299 12.3893 101.783 9.9 95.5896 9.9C89.1968 9.9 85.3611 13.4561 85.0415 17.4468H91.1945C91.4742 15.3922 92.9126 14.3254 95.0302 14.3254C97.4275 14.3254 98.6661 15.1946 98.6661 17.7234V18.5532ZM98.8259 22.8995C98.8259 26.8112 96.8282 27.9176 94.1911 27.9176C92.4731 27.9176 91.1546 27.0088 91.1546 25.6259C91.1546 23.2946 94.2311 22.8205 98.8259 22.3858V22.8995Z" fill="white"/>
<path d="M122.426 3.18292V13.4561C121.028 11.1249 118.151 10.0976 115.834 10.0976C110.28 10.0976 106.365 14.2463 106.365 21.2005C106.365 28.1546 110.28 32.3429 115.834 32.3429C118.151 32.3429 121.028 31.3156 122.426 28.9844V31.8293H129.019V3.18292H122.426ZM117.991 15.1551C120.588 15.1551 122.746 16.8146 122.746 21.2005C122.746 25.5863 120.588 27.2854 117.991 27.2854C115.394 27.2854 113.197 25.1517 113.197 21.2005C113.197 17.2493 115.394 15.1551 117.991 15.1551Z" fill="white"/>
<path d="M146.814 3.18292V13.4561C145.416 11.1249 142.539 10.0976 140.222 10.0976C134.668 10.0976 130.753 14.2463 130.753 21.2005C130.753 28.1546 134.668 32.3429 140.222 32.3429C142.539 32.3429 145.416 31.3156 146.814 28.9844V31.8293H153.407V3.18292H146.814ZM142.379 15.1551C144.977 15.1551 147.134 16.8146 147.134 21.2005C147.134 25.5863 144.977 27.2854 142.379 27.2854C139.782 27.2854 137.585 25.1517 137.585 21.2005C137.585 17.2493 139.782 15.1551 142.379 15.1551Z" fill="white"/>
<path d="M166.648 14.9971C169.245 14.9971 171.322 16.5776 171.322 21.1215C171.322 25.5863 169.325 27.2854 166.648 27.2854C163.971 27.2854 161.973 25.5863 161.973 21.1215C161.973 16.5776 164.051 14.9971 166.648 14.9971ZM166.648 9.93951C160.694 9.93951 155.261 13.4166 155.261 21.1215C155.261 28.8263 160.694 32.3429 166.648 32.3429C172.601 32.3429 178.035 28.8263 178.035 21.1215C178.035 13.4166 172.601 9.93951 166.648 9.93951Z" fill="white"/>
<path d="M199.68 10.5717H192.808L188.373 16.301L184.098 10.5717H176.626L184.577 21.2005L176.307 31.8293H183.299L187.974 25.7444L192.568 31.8293H200L191.769 20.8449L199.68 10.5717Z" fill="white"/>
</svg>
