<svg width="200" height="50" viewBox="0 0 200 50" fill="none" xmlns="http://www.w3.org/2000/svg">
<g clip-path="url(#clip0_2_22)">
<path d="M8.09717 4.77618C7.14128 4.77752 6.22491 5.18062 5.549 5.89708C4.87308 6.61355 4.4928 7.58491 4.49155 8.59814V41.0015C4.4928 42.0147 4.87308 42.9861 5.549 43.7025C6.22491 44.419 7.14128 44.8221 8.09717 44.8234H72.4935C73.4497 44.8234 74.3668 44.4208 75.043 43.704C75.7192 42.9873 76.0991 42.0151 76.0991 41.0015V8.583C76.0941 7.57239 75.7121 6.60491 75.0366 5.89172C74.3611 5.17852 73.4469 4.7775 72.4935 4.77618H8.09717ZM72.4887 49.5592H8.09717C5.94966 49.5592 3.89011 48.6549 2.3716 47.0453C0.853092 45.4357 0 43.2526 0 40.9762V8.583C0 6.30664 0.853092 4.12352 2.3716 2.5139C3.89011 0.904277 5.94966 0 8.09717 0H72.4935C74.6409 0 76.7005 0.904277 78.2191 2.5139C79.7375 4.12352 80.5907 6.30664 80.5907 8.583V40.9863C80.5907 43.2627 79.7375 45.4458 78.2191 47.0554C76.7005 48.665 74.6409 49.5693 72.4935 49.5693L72.4887 49.5592Z" fill="white"/>
<path d="M69.3165 33.6857H59.3142V12.1979C59.3142 11.8578 59.1867 11.5316 58.9598 11.2912C58.7329 11.0507 58.4252 10.9155 58.1043 10.9155H55.8466C55.6866 10.9135 55.5277 10.9452 55.3792 11.0088C55.2308 11.0723 55.0958 11.1665 54.9819 11.2858C54.868 11.405 54.7776 11.5471 54.7159 11.7037C54.6542 11.8603 54.6225 12.0283 54.6225 12.1979V37.3663C54.6225 37.5352 54.654 37.7023 54.7151 37.8582C54.7761 38.0142 54.8658 38.1558 54.9786 38.2749C55.0914 38.3941 55.2254 38.4884 55.3726 38.5526C55.52 38.6167 55.6778 38.6494 55.8371 38.6487H69.3308C69.6512 38.6474 69.9583 38.5119 70.1849 38.2716C70.4115 38.0314 70.5393 37.706 70.5406 37.3663V34.9782C70.5406 34.8081 70.5089 34.6396 70.4474 34.4824C70.3858 34.3253 70.2955 34.1826 70.1818 34.0625C70.068 33.9424 69.9331 33.8473 69.7846 33.7827C69.6361 33.718 69.4771 33.6851 69.3165 33.6857V33.6857ZM50.3358 12.203C50.3358 12.0342 50.3043 11.867 50.2432 11.7111C50.1822 11.5552 50.0926 11.4136 49.9798 11.2944C49.8669 11.1753 49.733 11.0809 49.5857 11.0168C49.4383 10.9526 49.2805 10.9199 49.1212 10.9206H35.6275C35.3066 10.9219 34.9992 11.0573 34.7718 11.2974C34.5443 11.5374 34.4155 11.8628 34.4129 12.203V37.3663C34.4142 37.7069 34.5427 38.0331 34.7704 38.2734C34.998 38.5138 35.3062 38.6487 35.6275 38.6487H49.1212C49.4417 38.6474 49.7487 38.5119 49.9753 38.2716C50.2019 38.0314 50.3298 37.706 50.331 37.3663V34.9782C50.331 34.6376 50.2037 34.3109 49.977 34.0696C49.7502 33.8283 49.4425 33.6921 49.1212 33.6908H39.1189V27.2636H44.6058C44.9205 27.2532 45.2191 27.1136 45.4385 26.8744C45.658 26.6351 45.7812 26.3149 45.7824 25.9812V23.5881C45.7811 23.2501 45.6545 22.9262 45.43 22.6863C45.2055 22.4464 44.9008 22.3097 44.5821 22.3057H39.0998V15.8836H49.1022C49.2641 15.8863 49.4248 15.8546 49.575 15.7905C49.7253 15.7264 49.8618 15.6311 49.9768 15.5102C50.0917 15.3893 50.1826 15.2453 50.2443 15.0865C50.3059 14.9278 50.3371 14.7577 50.3358 14.586V12.203V12.203ZM30.0739 29.6063C30.0176 29.0012 29.8797 28.4078 29.6642 27.8442C28.832 25.84 27.2936 24.2601 25.3775 23.4417C24.1928 22.9826 22.9695 22.6445 21.7242 22.4319C20.9526 22.2653 20.181 22.1088 19.4142 21.927C18.7739 21.7944 18.1525 21.5737 17.5661 21.2707C16.8183 20.8516 16.08 20.4275 15.7799 19.544C15.6855 19.2437 15.6519 18.9257 15.6814 18.6107C15.711 18.2958 15.803 17.991 15.9514 17.7163C16.4303 16.9884 17.1038 16.4292 17.8852 16.1108C18.72 15.7115 19.627 15.5105 20.5427 15.5218C21.4584 15.5332 22.3608 15.7566 23.1865 16.1764C23.4025 16.2977 23.6094 16.4361 23.8057 16.5904C24.2442 16.9345 24.6409 17.3347 24.9869 17.7819C25.2416 18.1331 25.5528 18.434 25.9061 18.6705C26.3298 18.9107 26.8077 19.0225 27.2875 18.9937C28.0876 18.9937 29.1926 18.8624 29.669 18.0697C29.7964 17.8698 29.8735 17.6387 29.8928 17.3982C29.8943 17.0732 29.8494 16.7497 29.7594 16.439C29.6109 15.9125 29.3808 15.416 29.0784 14.9698C28.6489 14.3434 28.1553 13.7694 27.6066 13.2582C27.4685 13.132 27.316 13.031 27.1731 12.9149C24.8475 11.1334 21.9892 10.3113 19.1331 10.6025C17.6647 10.7931 16.2439 11.278 14.9464 12.0313C13.8779 12.6671 12.9518 13.5403 12.2315 14.5911C11.3178 15.9049 10.842 17.5033 10.8788 19.135C10.9317 20.7572 11.5046 22.3119 12.503 23.5427C12.9912 24.1442 13.563 24.6634 14.1986 25.0825C16.1325 26.2488 19.4379 27.0263 22.1053 27.6978C23.0578 27.9452 23.9772 28.1573 24.7344 28.8995C24.9788 29.1651 25.1628 29.4863 25.2726 29.8385C25.749 31.3532 24.6202 32.6154 23.4723 33.2667C22.8885 33.5778 22.2639 33.794 21.6194 33.9079C20.8127 34.0494 19.9889 34.0392 19.1856 33.8776C18.5591 33.7786 17.9523 33.5705 17.3898 33.2616C16.8078 32.8657 16.3191 32.3338 15.9609 31.7066C15.8405 31.4848 15.6966 31.2782 15.5323 31.0906C15.0754 30.7085 14.4971 30.5276 13.9176 30.5858C13.5658 30.593 13.2153 30.6318 12.8697 30.7019C12.5587 30.7558 12.2549 30.849 11.9647 30.9796C11.6642 31.1139 11.4204 31.3598 11.2789 31.6713C11.1628 31.9593 11.1139 32.2727 11.1359 32.5851C11.14 32.6679 11.1479 32.7505 11.1598 32.8325C11.2239 33.2898 11.3728 33.7291 11.598 34.125C12.0981 35.0317 12.7427 35.8397 13.5032 36.5131C13.7413 36.715 13.9795 36.9069 14.2272 37.0886C14.6393 37.3917 15.0742 37.6585 15.5275 37.8864C17.0492 38.6174 18.6963 39.0092 20.3668 39.0375C21.3306 39.0335 22.2903 38.9047 23.2246 38.6538C24.8887 38.2634 26.4244 37.4094 27.6732 36.1798C28.0247 35.8256 28.3437 35.4367 28.6258 35.0186C29.6863 33.4473 30.1982 31.5338 30.0739 29.6063V29.6063ZM92.5982 13.3592C91.844 13.3946 91.0928 13.2364 90.4087 12.898C89.7245 12.5595 89.1275 12.0509 88.6688 11.4154L90.1262 10.037C90.4447 10.4357 90.8441 10.753 91.2942 10.9654C91.7445 11.1778 92.2342 11.2799 92.7269 11.2639C93.9272 11.2639 94.4896 10.9105 94.4896 10.1027C94.4896 9.41604 94.1414 9.09292 92.2362 8.64862C90.331 8.20432 89.0736 7.56312 89.0736 5.44767C89.0736 3.50387 90.693 2.31235 92.684 2.31235C93.3755 2.2968 94.062 2.43886 94.6972 2.72892C95.3321 3.01898 95.9019 3.45027 96.366 3.99361L94.9085 5.50825C94.6208 5.1637 94.2671 4.88753 93.8714 4.69785C93.4758 4.50817 93.0468 4.40927 92.6125 4.40761C91.5313 4.40761 91.1836 4.91249 91.1836 5.37194C91.1836 6.04343 91.6171 6.26053 93.2175 6.65938C94.8179 7.05824 96.5943 7.63886 96.5943 9.96636C96.5708 11.9859 95.3557 13.3592 92.5982 13.3592ZM104.41 5.59913C104.248 5.23099 103.986 4.92324 103.656 4.71607C103.326 4.5089 102.945 4.41196 102.562 4.4379C101.048 4.4379 100.181 5.84652 100.181 7.83576C100.181 9.82499 101.062 11.2336 102.562 11.2336C103.473 11.2336 103.992 10.8196 104.54 9.87043L106.244 10.9408C105.926 11.6952 105.4 12.33 104.736 12.7616C104.071 13.1932 103.298 13.4015 102.52 13.3592C99.8764 13.3592 98.1 11.2185 98.1 7.83576C98.1 4.57422 99.9472 2.31235 102.592 2.31235C103.361 2.26468 104.127 2.46603 104.787 2.88975C105.447 3.31347 105.97 3.93959 106.287 4.68529L104.41 5.59913V5.59913ZM114.475 13.1926V8.69405H110.35V13.1926H108.325V2.47896H110.35V6.58365H114.494V2.47896H116.513V13.1926H114.475ZM127.688 13.1926H125.711L124.468 7.68429C124.325 7.04309 124.177 6.24538 124.12 5.84652C124.038 6.46467 123.927 7.07805 123.787 7.68429L122.515 13.1926H120.609L118.5 2.47896H120.609L121.491 7.69944C121.576 8.20432 121.691 9.01718 121.739 9.46148C121.81 9.01718 121.972 8.21947 122.086 7.69944L123.273 2.47896H125.035L126.235 7.69944C126.349 8.20432 126.511 9.01718 126.582 9.46148C126.625 9.01718 126.74 8.20432 126.83 7.69944L127.711 2.47896H129.792L127.688 13.1926V13.1926ZM131.812 13.1926V2.47896H138.833V4.57422H133.837V6.42714H136.738V8.50725H133.837V11.0922H139.047V13.1875H131.812V13.1926V13.1926ZM141.343 13.1926V2.47896H143.362V13.1926H141.343ZM150.359 4.58937V13.1724H148.359V4.58937H145.458V2.47896H153.284V4.58937H150.359ZM154.541 13.1926V11.2942L158.886 5.78593C159.205 5.37193 159.781 4.67015 160.038 4.39246C159.633 4.39246 158.58 4.42275 157.99 4.42275H154.827V2.47896H162.448V4.37731L158.161 9.87043C157.842 10.2844 157.266 10.9862 157.008 11.2639C157.413 11.2639 158.466 11.2336 159.057 11.2336H162.539V13.1926H154.541V13.1926ZM164.792 13.1926V2.47896H171.793V4.57422H166.811V6.42714H169.712V8.50725H166.811V11.0922H172.022V13.1875H164.792V13.1926V13.1926ZM180.038 13.1926L178.233 9.32011H176.199V13.1774H174.175V2.47896H178.881C180.786 2.47896 182.362 3.59475 182.362 5.87681C182.362 7.48234 181.715 8.4921 180.428 9.02728L182.362 13.1926H180.038V13.1926ZM178.838 4.55907H176.194V7.30058H178.838C179.791 7.30058 180.267 6.84114 180.267 5.90711C180.267 4.97308 179.733 4.55907 178.838 4.55907ZM89.3212 19.4178H96.3368V21.513H91.3408V23.3659H94.2415V25.4763H91.3408V28.0613H96.5377V30.1566H89.3212V19.4178V19.4178ZM105.087 30.1415L101.376 24.2949C101.129 23.8961 100.8 23.3609 100.667 23.0883C100.667 23.4871 100.695 24.8351 100.695 25.4309V30.1465H98.7047V19.4178H100.639L104.22 25.0825C104.468 25.4814 104.796 26.0166 104.93 26.2943C104.93 25.8954 104.901 24.5474 104.901 23.9516V19.4178H106.892V30.1415H105.087V30.1415ZM113.375 30.3131C110.731 30.3131 108.955 28.1724 108.955 24.7897C108.955 21.5282 110.803 19.2663 113.446 19.2663C115.513 19.2663 116.608 20.2761 117.257 21.9472L115.351 22.7904C114.975 21.9927 114.513 21.3969 113.418 21.3969C111.903 21.3969 111.036 22.8055 111.036 24.7947C111.036 26.784 111.917 28.2229 113.418 28.2229C114.804 28.2229 115.28 27.5312 115.394 26.6022H113.789V24.5827H117.413V25.9812C117.433 28.748 115.713 30.3131 113.375 30.3131V30.3131ZM119.709 30.1415V19.4178H121.729V30.1415H119.709V30.1415ZM130.859 30.1415L127.149 24.2949C126.907 23.8961 126.573 23.3609 126.44 23.0883C126.44 23.4871 126.468 24.8351 126.468 25.4309V30.1465H124.477V19.4178H126.411L129.992 25.0825C130.241 25.4814 130.569 26.0166 130.703 26.2943C130.703 25.8954 130.674 24.5474 130.674 23.9516V19.4178H132.665V30.1415H130.859V30.1415ZM135.26 19.4178H142.262V21.513H137.285V23.3659H140.186V25.4763H137.285V28.0613H142.496V30.1566H135.26V19.4178ZM144.644 19.4178H151.66V21.513H146.668V23.3659H149.569V25.4763H146.668V28.0613H151.879V30.1566H144.644V19.4178ZM159.886 30.1415L158.08 26.2842H156.075V30.1415H154.051V19.4178H158.757C160.662 19.4178 162.239 20.5336 162.239 22.8156C162.239 24.4211 161.591 25.4309 160.305 25.9661L162.239 30.1314H159.886V30.1415V30.1415ZM158.686 21.508H156.075V24.2646H158.719C159.672 24.2646 160.148 23.8052 160.148 22.8712C160.148 21.9371 159.591 21.513 158.695 21.513L158.686 21.508ZM164.482 30.1415V19.4178H166.502V30.1415H164.482ZM175.632 30.1415L171.922 24.2949C171.679 23.8961 171.345 23.3609 171.217 23.0883C171.217 23.4871 171.245 24.8351 171.245 25.4309V30.1465H169.255V19.4178H171.189L174.77 25.0825C175.018 25.4814 175.346 26.0166 175.48 26.2943C175.48 25.8954 175.451 24.5474 175.451 23.9516V19.4178H177.442V30.1415H175.632V30.1415ZM183.92 30.3131C181.276 30.3131 179.5 28.1724 179.5 24.7897C179.5 21.5282 181.348 19.2663 183.992 19.2663C186.054 19.2663 187.154 20.2761 187.802 21.9472L185.896 22.7904C185.521 21.9927 185.058 21.3969 183.963 21.3969C182.448 21.3969 181.581 22.8055 181.581 24.7947C181.581 26.784 182.462 28.2229 183.963 28.2229C185.349 28.2229 185.825 27.5312 185.94 26.6022H184.334V24.5827H187.988V25.9812C187.988 28.748 186.258 30.3131 183.92 30.3131V30.3131ZM89.3212 47.0954V36.3818H91.3408V44.9648H96.4085V47.0752H89.3212V47.0954V47.0954ZM105.001 47.0954L104.206 44.7073H100.509L99.7141 47.0954H97.5472L101.42 36.3818H103.382L107.221 47.0954H104.996H105.001ZM102.862 40.7288C102.658 40.1028 102.458 39.4565 102.358 39.0627C102.258 39.4616 102.053 40.1028 101.853 40.7288L101.2 42.6726H103.51L102.862 40.7288V40.7288ZM113.684 47.0954H109.092V36.3818H113.727C115.69 36.3818 116.933 37.3916 116.933 39.2142C116.944 39.6299 116.851 40.0415 116.664 40.4069C116.476 40.7723 116.201 41.0785 115.866 41.2943C116.301 41.4842 116.671 41.8102 116.925 42.2289C117.181 42.6475 117.309 43.1387 117.294 43.637C117.285 45.8837 115.857 47.0954 113.684 47.0954ZM111.069 38.3559V40.3754H113.742C114.579 40.3754 114.885 39.9614 114.885 39.3657C114.89 38.7093 114.527 38.3559 113.646 38.3559H111.069ZM111.069 42.2889V45.0607H113.756C114.737 45.0607 115.185 44.5104 115.185 43.6673C115.208 42.7484 114.746 42.2889 113.765 42.2889H111.069ZM123.134 47.262C120.491 47.262 118.686 45.2122 118.686 41.7537C118.686 38.2953 120.519 36.2 123.162 36.2C125.807 36.2 127.597 38.2499 127.597 41.7083C127.597 45.1667 125.763 47.262 123.134 47.262ZM123.134 38.3407C121.705 38.3407 120.781 39.5474 120.781 41.7234C120.781 43.8995 121.762 45.1365 123.162 45.1365C124.563 45.1365 125.516 43.9247 125.516 41.7537C125.516 39.5827 124.534 38.3407 123.12 38.3407H123.134ZM135.494 47.0954L133.689 43.2381H131.655V47.0954H129.631V36.3818H134.337C136.242 36.3818 137.819 37.4976 137.819 39.7797C137.819 41.3852 137.171 42.395 135.885 42.9352L137.819 47.1005H135.494V47.0954ZM134.294 38.4619H131.65V41.2186H134.294C135.246 41.2186 135.723 40.7591 135.723 39.8251C135.723 38.8911 135.19 38.4619 134.294 38.4619ZM146.449 47.0954L145.654 44.7073H141.958L141.162 47.0954H138.995L142.862 36.3818H144.825L148.664 47.0954H146.44H146.449ZM144.31 40.7288C144.11 40.1028 143.906 39.4565 143.806 39.0627C143.706 39.4616 143.501 40.1028 143.301 40.7288L142.653 42.6726H144.963L144.31 40.7288ZM153.456 38.4922V47.0752H151.436V38.4922H148.535V36.3818H156.361V38.4922H153.456ZM161.7 47.262C159.057 47.262 157.252 45.2122 157.252 41.7537C157.252 38.2953 159.086 36.2 161.729 36.2C164.373 36.2 166.163 38.2499 166.163 41.7083C166.163 45.1667 164.325 47.262 161.7 47.262ZM161.7 38.3407C160.272 38.3407 159.347 39.5474 159.347 41.7234C159.347 43.8995 160.328 45.1365 161.729 45.1365C163.129 45.1365 164.082 43.9247 164.082 41.7537C164.082 39.5827 163.101 38.3407 161.686 38.3407H161.7ZM174.056 47.0954L172.27 43.2381H170.236V47.0954H168.211V36.3818H172.917C174.823 36.3818 176.399 37.4976 176.399 39.7797C176.399 41.3852 175.751 42.395 174.465 42.9352L176.399 47.1005H174.075L174.056 47.0954ZM170.212 38.4619V41.2186H172.856C173.808 41.2186 174.284 40.7591 174.284 39.8251C174.284 38.8911 173.756 38.4619 172.86 38.4619H170.212V38.4619ZM178.647 47.0954V36.3818H180.667V47.0954H178.647ZM183.415 47.0954V36.3818H190.431V38.4771H185.435V40.33H188.335V42.4101H185.435V44.9951H190.645V47.0904H183.415V47.0954V47.0954ZM196.018 47.262C195.264 47.2975 194.512 47.1392 193.828 46.8008C193.144 46.4624 192.547 45.9537 192.089 45.3182L193.546 43.9399C193.863 44.3365 194.26 44.6526 194.708 44.8649C195.156 45.0773 195.642 45.1804 196.132 45.1667C197.333 45.1667 197.894 44.8133 197.894 44.0055C197.894 43.3189 197.547 42.9958 195.642 42.5515C193.737 42.1072 192.479 41.466 192.479 39.3505C192.479 37.4067 194.099 36.2152 196.09 36.2152C196.781 36.1996 197.468 36.3417 198.103 36.6318C198.738 36.9218 199.307 37.3531 199.772 37.8964L198.314 39.4111C198.026 39.0665 197.673 38.7904 197.277 38.6007C196.881 38.411 196.452 38.3121 196.018 38.3104C194.937 38.3104 194.59 38.8153 194.59 39.2748C194.59 39.9463 195.023 40.1634 196.623 40.5622C198.224 40.9611 200 41.5417 200 43.8692C199.991 45.8837 198.775 47.262 196.018 47.262V47.262Z" fill="white"/>
</g>
<defs>
<clipPath id="clip0_2_22">
<rect width="200" height="50" fill="white"/>
</clipPath>
</defs>
</svg>
