<svg width="90" height="35" viewBox="0 0 90 35" fill="none" xmlns="http://www.w3.org/2000/svg">
<path d="M3.2248 20.1557L17.2869 13.9051L11.9911 20.6192L19.5847 23.8441L5.52257 30.0946L10.8184 23.3805L3.2248 20.1557Z" fill="#08A037" stroke="black" stroke-linecap="round" stroke-linejoin="round"/>
<path d="M10.2248 10.3549L24.2869 4.10436L18.9911 10.8185L26.5847 14.0433L12.5225 20.2939L17.8184 13.5798L10.2248 10.3549Z" fill="#08A037" stroke="black" stroke-linecap="round" stroke-linejoin="round"/>
<path d="M32.6037 8.67188C32.5639 8.29972 32.3963 8.00994 32.1009 7.80256C31.8082 7.59517 31.4276 7.49148 30.9588 7.49148C30.6293 7.49148 30.3466 7.54119 30.1108 7.64062C29.875 7.74006 29.6946 7.875 29.5696 8.04545C29.4446 8.21591 29.3807 8.41051 29.3778 8.62926C29.3778 8.81108 29.419 8.96875 29.5014 9.10227C29.5866 9.2358 29.7017 9.34943 29.8466 9.44318C29.9915 9.53409 30.152 9.6108 30.3281 9.6733C30.5043 9.7358 30.6818 9.78835 30.8608 9.83097L31.679 10.0355C32.0085 10.1122 32.3253 10.2159 32.6293 10.3466C32.9361 10.4773 33.2102 10.642 33.4517 10.8409C33.696 11.0398 33.8892 11.2798 34.0312 11.5611C34.1733 11.8423 34.2443 12.1719 34.2443 12.5497C34.2443 13.0611 34.1136 13.5114 33.8523 13.9006C33.5909 14.2869 33.2131 14.5895 32.7188 14.8082C32.2273 15.0241 31.6321 15.1321 30.9332 15.1321C30.2543 15.1321 29.6648 15.027 29.1648 14.8168C28.6676 14.6065 28.2784 14.2997 27.9972 13.8963C27.7188 13.4929 27.5682 13.0014 27.5455 12.4219H29.1009C29.1236 12.7259 29.2173 12.9787 29.3821 13.1804C29.5469 13.3821 29.7614 13.5327 30.0256 13.6321C30.2926 13.7315 30.5909 13.7812 30.9205 13.7812C31.2642 13.7812 31.5653 13.7301 31.8239 13.6278C32.0852 13.5227 32.2898 13.3778 32.4375 13.1932C32.5852 13.0057 32.6605 12.7869 32.6634 12.5369C32.6605 12.3097 32.5938 12.1222 32.4631 11.9744C32.3324 11.8239 32.1491 11.6989 31.9134 11.5994C31.6804 11.4972 31.4077 11.4062 31.0952 11.3267L30.1023 11.071C29.3835 10.8864 28.8153 10.6065 28.3977 10.2315C27.983 9.85369 27.7756 9.35227 27.7756 8.72727C27.7756 8.21307 27.9148 7.76278 28.1932 7.37642C28.4744 6.99006 28.8565 6.69034 29.3395 6.47727C29.8224 6.26136 30.3693 6.15341 30.9801 6.15341C31.5994 6.15341 32.142 6.26136 32.608 6.47727C33.0767 6.69034 33.4446 6.98722 33.7116 7.3679C33.9787 7.74574 34.1165 8.1804 34.125 8.67188H32.6037ZM35.6538 15V6.27273H41.3299V7.59801H37.2347V9.96733H41.0359V11.2926H37.2347V13.6747H41.364V15H35.6538ZM42.9428 15V6.27273H46.2156C46.886 6.27273 47.4485 6.3892 47.9031 6.62216C48.3604 6.85511 48.7056 7.18182 48.9386 7.60227C49.1744 8.01989 49.2923 8.5071 49.2923 9.06392C49.2923 9.62358 49.1729 10.1094 48.9343 10.5213C48.6985 10.9304 48.3505 11.2472 47.8903 11.4716C47.43 11.6932 46.8647 11.804 46.1942 11.804H43.8633V10.4915H45.9812C46.3732 10.4915 46.6942 10.4375 46.9442 10.3295C47.1942 10.2187 47.3789 10.0582 47.4982 9.84801C47.6204 9.63494 47.6815 9.37358 47.6815 9.06392C47.6815 8.75426 47.6204 8.49006 47.4982 8.27131C47.3761 8.04972 47.19 7.8821 46.94 7.76847C46.69 7.65199 46.3675 7.59375 45.9727 7.59375H44.5238V15H42.9428ZM47.4513 11.0455L49.6119 15H47.8477L45.7255 11.0455H47.4513ZM51.6925 6.27273L53.9638 13.142H54.0533L56.3203 6.27273H58.0589L54.9822 15H53.0305L49.9581 6.27273H51.6925ZM60.7894 6.27273V15H59.2085V6.27273H60.7894ZM69.9716 9.21733H68.3778C68.3324 8.95597 68.2486 8.72443 68.1264 8.52273C68.0043 8.31818 67.8523 8.14489 67.6705 8.00284C67.4886 7.8608 67.2813 7.75426 67.0483 7.68324C66.8182 7.60938 66.5696 7.57244 66.3026 7.57244C65.8281 7.57244 65.4077 7.69176 65.0412 7.9304C64.6747 8.16619 64.3878 8.51278 64.1804 8.97017C63.973 9.42472 63.8693 9.98011 63.8693 10.6364C63.8693 11.304 63.973 11.8665 64.1804 12.3239C64.3906 12.7784 64.6776 13.1222 65.0412 13.3551C65.4077 13.5852 65.8267 13.7003 66.2983 13.7003C66.5597 13.7003 66.804 13.6662 67.0312 13.598C67.2614 13.527 67.4673 13.4233 67.6491 13.2869C67.8338 13.1506 67.9886 12.983 68.1136 12.7841C68.2415 12.5852 68.3295 12.358 68.3778 12.1023L69.9716 12.1108C69.9119 12.5256 69.7827 12.9148 69.5838 13.2784C69.3878 13.642 69.1307 13.9631 68.8125 14.2415C68.4943 14.517 68.1222 14.733 67.696 14.8892C67.2699 15.0426 66.7969 15.1193 66.277 15.1193C65.5099 15.1193 64.8253 14.9418 64.223 14.5866C63.6207 14.2315 63.1463 13.7188 62.7997 13.0483C62.4531 12.3778 62.2798 11.5739 62.2798 10.6364C62.2798 9.69602 62.4545 8.89205 62.804 8.22443C63.1534 7.55398 63.6293 7.04119 64.2315 6.68608C64.8338 6.33097 65.5156 6.15341 66.277 6.15341C66.7628 6.15341 67.2145 6.22159 67.6321 6.35795C68.0497 6.49432 68.4219 6.6946 68.7486 6.95881C69.0753 7.22017 69.3438 7.54119 69.554 7.92188C69.767 8.29972 69.9063 8.73153 69.9716 9.21733ZM71.4194 15V6.27273H77.0955V7.59801H73.0004V9.96733H76.8015V11.2926H73.0004V13.6747H77.1296V15H71.4194Z" fill="black"/>
<path d="M26.6037 19.6719C26.5639 19.2997 26.3963 19.0099 26.1009 18.8026C25.8082 18.5952 25.4276 18.4915 24.9588 18.4915C24.6293 18.4915 24.3466 18.5412 24.1108 18.6406C23.875 18.7401 23.6946 18.875 23.5696 19.0455C23.4446 19.2159 23.3807 19.4105 23.3778 19.6293C23.3778 19.8111 23.419 19.9687 23.5014 20.1023C23.5866 20.2358 23.7017 20.3494 23.8466 20.4432C23.9915 20.5341 24.152 20.6108 24.3281 20.6733C24.5043 20.7358 24.6818 20.7884 24.8608 20.831L25.679 21.0355C26.0085 21.1122 26.3253 21.2159 26.6293 21.3466C26.9361 21.4773 27.2102 21.642 27.4517 21.8409C27.696 22.0398 27.8892 22.2798 28.0312 22.5611C28.1733 22.8423 28.2443 23.1719 28.2443 23.5497C28.2443 24.0611 28.1136 24.5114 27.8523 24.9006C27.5909 25.2869 27.2131 25.5895 26.7188 25.8082C26.2273 26.0241 25.6321 26.1321 24.9332 26.1321C24.2543 26.1321 23.6648 26.027 23.1648 25.8168C22.6676 25.6065 22.2784 25.2997 21.9972 24.8963C21.7188 24.4929 21.5682 24.0014 21.5455 23.4219H23.1009C23.1236 23.7259 23.2173 23.9787 23.3821 24.1804C23.5469 24.3821 23.7614 24.5327 24.0256 24.6321C24.2926 24.7315 24.5909 24.7812 24.9205 24.7812C25.2642 24.7812 25.5653 24.7301 25.8239 24.6278C26.0852 24.5227 26.2898 24.3778 26.4375 24.1932C26.5852 24.0057 26.6605 23.7869 26.6634 23.5369C26.6605 23.3097 26.5938 23.1222 26.4631 22.9744C26.3324 22.8239 26.1491 22.6989 25.9134 22.5994C25.6804 22.4972 25.4077 22.4062 25.0952 22.3267L24.1023 22.071C23.3835 21.8864 22.8153 21.6065 22.3977 21.2315C21.983 20.8537 21.7756 20.3523 21.7756 19.7273C21.7756 19.2131 21.9148 18.7628 22.1932 18.3764C22.4744 17.9901 22.8565 17.6903 23.3395 17.4773C23.8224 17.2614 24.3693 17.1534 24.9801 17.1534C25.5994 17.1534 26.142 17.2614 26.608 17.4773C27.0767 17.6903 27.4446 17.9872 27.7116 18.3679C27.9787 18.7457 28.1165 19.1804 28.125 19.6719H26.6037ZM37.4521 21.6364C37.4521 22.5767 37.2759 23.3821 36.9237 24.0526C36.5742 24.7202 36.0969 25.2315 35.4918 25.5866C34.8896 25.9418 34.2063 26.1193 33.4421 26.1193C32.6779 26.1193 31.9933 25.9418 31.3881 25.5866C30.7859 25.2287 30.3086 24.7159 29.9563 24.0483C29.6069 23.3778 29.4322 22.5739 29.4322 21.6364C29.4322 20.696 29.6069 19.892 29.9563 19.2244C30.3086 18.554 30.7859 18.0412 31.3881 17.6861C31.9933 17.331 32.6779 17.1534 33.4421 17.1534C34.2063 17.1534 34.8896 17.331 35.4918 17.6861C36.0969 18.0412 36.5742 18.554 36.9237 19.2244C37.2759 19.892 37.4521 20.696 37.4521 21.6364ZM35.8626 21.6364C35.8626 20.9744 35.7589 20.4162 35.5515 19.9616C35.3469 19.5043 35.0629 19.1591 34.6992 18.9261C34.3356 18.6903 33.9165 18.5724 33.4421 18.5724C32.9677 18.5724 32.5487 18.6903 32.185 18.9261C31.8214 19.1591 31.5359 19.5043 31.3285 19.9616C31.1239 20.4162 31.0217 20.9744 31.0217 21.6364C31.0217 22.2983 31.1239 22.858 31.3285 23.3153C31.5359 23.7699 31.8214 24.1151 32.185 24.3509C32.5487 24.5838 32.9677 24.7003 33.4421 24.7003C33.9165 24.7003 34.3356 24.5838 34.6992 24.3509C35.0629 24.1151 35.3469 23.7699 35.5515 23.3153C35.7589 22.858 35.8626 22.2983 35.8626 21.6364ZM39.6456 17.2727L41.9169 24.142H42.0064L44.2734 17.2727H46.0121L42.9354 26H40.9837L37.9112 17.2727H39.6456ZM47.1616 26V17.2727H52.8377V18.598H48.7425V20.9673H52.5437V22.2926H48.7425V24.6747H52.8718V26H47.1616ZM54.4506 26V17.2727H57.7234C58.3938 17.2727 58.9563 17.3892 59.4109 17.6222C59.8683 17.8551 60.2134 18.1818 60.4464 18.6023C60.6822 19.0199 60.8001 19.5071 60.8001 20.0639C60.8001 20.6236 60.6808 21.1094 60.4421 21.5213C60.2063 21.9304 59.8583 22.2472 59.3981 22.4716C58.9379 22.6932 58.3725 22.804 57.7021 22.804H55.3711V21.4915H57.489C57.881 21.4915 58.2021 21.4375 58.4521 21.3295C58.7021 21.2187 58.8867 21.0582 59.006 20.848C59.1282 20.6349 59.1893 20.3736 59.1893 20.0639C59.1893 19.7543 59.1282 19.4901 59.006 19.2713C58.8839 19.0497 58.6978 18.8821 58.4478 18.7685C58.1978 18.652 57.8754 18.5938 57.4805 18.5938H56.0316V26H54.4506ZM58.9592 22.0455L61.1197 26H59.3555L57.2333 22.0455H58.9592ZM62.2553 26V17.2727H67.9315V18.598H63.8363V20.9673H67.6374V22.2926H63.8363V24.6747H67.9656V26H62.2553ZM71.1254 17.2727V26H69.5444V17.2727H71.1254ZM78.6839 20.0597C78.6129 19.8295 78.5149 19.6236 78.3899 19.4418C78.2678 19.2571 78.12 19.0994 77.9467 18.9688C77.7763 18.8381 77.5803 18.7401 77.3587 18.6747C77.1371 18.6065 76.8956 18.5724 76.6342 18.5724C76.1655 18.5724 75.7479 18.6903 75.3814 18.9261C75.0149 19.1619 74.7266 19.5085 74.5163 19.9659C74.3089 20.4205 74.2053 20.9744 74.2053 21.6278C74.2053 22.2869 74.3089 22.8452 74.5163 23.3026C74.7237 23.7599 75.0121 24.108 75.3814 24.3466C75.7507 24.5824 76.1797 24.7003 76.6683 24.7003C77.1115 24.7003 77.495 24.6151 77.8189 24.4446C78.1456 24.2741 78.397 24.0327 78.5732 23.7202C78.7493 23.4048 78.8374 23.0355 78.8374 22.6122L79.1953 22.6676H76.826V21.4318H80.3672V22.4801C80.3672 23.2273 80.2081 23.8736 79.8899 24.419C79.5717 24.9645 79.1342 25.3849 78.5774 25.6804C78.0206 25.973 77.3814 26.1193 76.6598 26.1193C75.8558 26.1193 75.1499 25.9389 74.5419 25.5781C73.9368 25.2145 73.4638 24.6989 73.1229 24.0312C72.7848 23.3608 72.6158 22.5653 72.6158 21.6449C72.6158 20.9403 72.7152 20.3111 72.9141 19.7571C73.1158 19.2031 73.397 18.733 73.7578 18.3466C74.1186 17.9574 74.5419 17.6619 75.0277 17.4602C75.5135 17.2557 76.0419 17.1534 76.6129 17.1534C77.0959 17.1534 77.5462 17.2244 77.9638 17.3665C78.3814 17.5057 78.7521 17.7045 79.076 17.9631C79.4027 18.2216 79.6712 18.5284 79.8814 18.8835C80.0916 19.2386 80.2294 19.6307 80.2947 20.0597H78.6839ZM89.0678 17.2727V26H87.6616L83.5494 20.0554H83.4769V26H81.896V17.2727H83.3107L87.4187 23.2216H87.4954V17.2727H89.0678Z" fill="black"/>
</svg>
