<svg width="279" height="82" viewBox="0 0 279 82" fill="none" xmlns="http://www.w3.org/2000/svg">
<path d="M2.05148 32.8H41.0294V15.1676L30.0395 24.5526L21.394 8.2L12.895 24.5526L2.05148 16.7318V32.8Z" fill="#08A037" stroke="#08A037" stroke-width="1.5"/>
<path d="M2.05148 41L3.80988 50.4099H16.4424V69.7H25.7166V50.4099H38.978L41.0294 41H2.05148Z" fill="black" stroke="black" stroke-width="1.5"/>
<path d="M73.0676 51.815C72.9121 50.4366 72.271 49.3689 71.1444 48.6119C70.0175 47.845 68.5995 47.4616 66.8898 47.4616C65.6659 47.4616 64.6071 47.6557 63.7135 48.044C62.8199 48.4224 62.1255 48.9466 61.63 49.6164C61.1445 50.2765 60.9016 51.0286 60.9016 51.8732C60.9016 52.5817 61.0667 53.1932 61.397 53.7078C61.7369 54.2221 62.1788 54.654 62.7229 55.0036C63.2766 55.3432 63.869 55.6296 64.5005 55.8625C65.1317 56.0857 65.7387 56.2702 66.3216 56.4158L69.2357 57.1729C70.1875 57.4057 71.1638 57.7212 72.1641 58.1194C73.1646 58.5173 74.0923 59.0414 74.9472 59.6917C75.8018 60.342 76.4915 61.1476 77.0161 62.1086C77.5503 63.0695 77.8174 64.2197 77.8174 65.5592C77.8174 67.2482 77.3804 68.7478 76.5061 70.0581C75.6416 71.3685 74.3838 72.4023 72.7324 73.1594C71.0908 73.9164 69.1046 74.2951 66.7733 74.2951C64.5392 74.2951 62.6063 73.9408 60.9744 73.2322C59.3424 72.5237 58.0652 71.519 57.1425 70.2182C56.2197 68.9079 55.7097 67.355 55.6127 65.5592H60.1294C60.2168 66.6367 60.5664 67.5346 61.1783 68.2527C61.8001 68.9614 62.5918 69.4903 63.5533 69.8398C64.5247 70.1795 65.5884 70.3494 66.7442 70.3494C68.0167 70.3494 69.1483 70.1504 70.1389 69.7525C71.1394 69.3447 71.9262 68.7818 72.4993 68.0635C73.0725 67.3355 73.3589 66.4862 73.3589 65.5155C73.3589 64.6322 73.1064 63.9092 72.6013 63.3462C72.1059 62.7831 71.4309 62.3173 70.5761 61.9485C69.7311 61.5795 68.7743 61.2544 67.7059 60.973L64.1798 60.0119C61.7903 59.3616 59.8961 58.4055 58.4974 57.1438C57.1084 55.882 56.414 54.2125 56.414 52.1352C56.414 50.4171 56.8803 48.9175 57.8127 47.6363C58.7453 46.355 60.0079 45.3602 61.6009 44.6515C63.1939 43.9334 64.991 43.5742 66.9918 43.5742C69.0123 43.5742 70.7946 43.9284 72.3391 44.6369C73.8931 45.3456 75.117 46.321 76.0106 47.5635C76.9045 48.7962 77.3706 50.2133 77.4095 51.815H73.0676ZM107.066 58.891C107.066 62.0746 106.483 64.8118 105.318 67.1027C104.152 69.3835 102.554 71.1405 100.524 72.3732C98.5038 73.5962 96.2066 74.2077 93.6326 74.2077C91.0488 74.2077 88.7419 73.5962 86.7117 72.3732C84.6915 71.1405 83.0983 69.3788 81.9328 67.0881C80.7672 64.7972 80.1844 62.065 80.1844 58.891C80.1844 55.7071 80.7672 52.9749 81.9328 50.6938C83.0983 48.4032 84.6915 46.6463 86.7117 45.4233C88.7419 44.1904 91.0488 43.5742 93.6326 43.5742C96.2066 43.5742 98.5038 44.1904 100.524 45.4233C102.554 46.6463 104.152 48.4032 105.318 50.6938C106.483 52.9749 107.066 55.7071 107.066 58.891ZM102.608 58.891C102.608 56.4644 102.214 54.4211 101.428 52.7613C100.65 51.0917 99.582 49.83 98.2221 48.9757C96.8721 48.1119 95.3421 47.6799 93.6326 47.6799C91.9132 47.6799 90.3785 48.1119 89.0285 48.9757C87.6782 49.83 86.6098 51.0917 85.823 52.7613C85.0459 54.4211 84.6574 56.4644 84.6574 58.891C84.6574 61.3176 85.0459 63.3655 85.823 65.035C86.6098 66.6949 87.6782 67.9567 89.0285 68.8206C90.3785 69.6748 91.9132 70.1018 93.6326 70.1018C95.3421 70.1018 96.8721 69.6748 98.2221 68.8206C99.582 67.9567 100.65 66.6949 101.428 65.035C102.214 63.3655 102.608 61.3176 102.608 58.891ZM111.753 43.9817L120.058 68.2673H120.393L128.698 43.9817H133.565L122.827 73.8H117.625L106.887 43.9817H111.753ZM135.823 73.8V43.9817H154.53V47.8548H140.325V56.94H153.554V60.7983H140.325V69.9271H154.705V73.8H135.823ZM158.493 73.8V43.9817H169.129C171.441 43.9817 173.359 44.3798 174.884 45.1756C176.419 45.9717 177.565 47.0733 178.323 48.4807C179.08 49.8786 179.459 51.4946 179.459 53.3291C179.459 55.154 179.076 56.7604 178.308 58.1485C177.55 59.5267 176.404 60.5992 174.87 61.3661C173.345 62.1328 171.426 62.5162 169.114 62.5162H161.057V58.6433H168.707C170.164 58.6433 171.348 58.4346 172.262 58.0173C173.184 57.5999 173.859 56.9933 174.287 56.1975C174.714 55.4015 174.928 54.4453 174.928 53.3291C174.928 52.2033 174.709 51.2277 174.272 50.4025C173.845 49.5776 173.17 48.9466 172.247 48.51C171.334 48.0633 170.134 47.84 168.648 47.84H162.995V73.8H158.493ZM173.223 60.3469L180.596 73.8H175.467L168.24 60.3469H173.223ZM182.886 73.8V43.9817H201.594V47.8548H187.388V56.94H200.618V60.7983H187.388V69.9271H201.769V73.8H182.886ZM210.058 43.9817V73.8H205.557V43.9817H210.058ZM234.758 53.4019C234.477 52.5185 234.097 51.7277 233.621 51.0286C233.156 50.3201 232.596 49.7182 231.945 49.2234C231.295 48.7187 230.552 48.3351 229.718 48.0731C228.891 47.8109 227.982 47.6799 226.991 47.6799C225.311 47.6799 223.797 48.1119 222.447 48.9757C221.095 49.8396 220.028 51.1063 219.241 52.7758C218.463 54.4357 218.075 56.4691 218.075 58.8764C218.075 61.2932 218.469 63.3364 219.255 65.0059C220.043 66.6754 221.12 67.9421 222.49 68.806C223.859 69.6699 225.418 70.1018 227.168 70.1018C228.788 70.1018 230.202 69.7718 231.406 69.1119C232.62 68.4518 233.558 67.52 234.218 66.3163C234.889 65.1031 235.224 63.6763 235.224 62.0359L236.389 62.2542H227.851V58.5414H239.581V61.9338C239.581 64.4381 239.046 66.6123 237.979 68.4567C236.918 70.2912 235.451 71.7082 233.578 72.708C231.714 73.7078 229.576 74.2077 227.168 74.2077C224.466 74.2077 222.096 73.5864 220.057 72.3441C218.026 71.1016 216.442 69.3398 215.306 67.0588C214.169 64.7681 213.601 62.0504 213.601 58.9055C213.601 56.5273 213.931 54.392 214.592 52.4993C215.253 50.6065 216.182 49.0001 217.376 47.6799C218.58 46.3501 219.994 45.336 221.616 44.6369C223.247 43.9284 225.03 43.5742 226.962 43.5742C228.575 43.5742 230.077 43.812 231.465 44.2876C232.864 44.7632 234.108 45.4378 235.195 46.3114C236.292 47.1849 237.201 48.2236 237.919 49.4271C238.639 50.6211 239.123 51.946 239.376 53.4019H234.758ZM267.329 43.9817V73.8H263.191L248.023 51.9314H247.746V73.8H243.245V43.9817H247.411L262.592 65.8796H262.869V43.9817H267.329Z" fill="black"/>
<path d="M71.1186 18.45C71.0408 17.4794 70.6765 16.7223 70.0257 16.1787C69.3847 15.6351 68.4086 15.3634 67.0973 15.3634C66.2619 15.3634 65.5769 15.4653 65.0427 15.6691C64.5184 15.8632 64.1298 16.1302 63.8773 16.4699C63.6245 16.8096 63.4934 17.1979 63.4838 17.6347C63.4643 17.9938 63.5275 18.319 63.6732 18.6102C63.8287 18.8917 64.0713 19.1489 64.4016 19.3818C64.7319 19.6051 65.1545 19.8089 65.6692 19.9933C66.1842 20.1777 66.7961 20.3428 67.5051 20.4884L69.9529 21.0125C71.6041 21.362 73.0174 21.8231 74.1929 22.3956C75.3682 22.9684 76.3297 23.6429 77.0777 24.4194C77.8256 25.1863 78.3744 26.0502 78.7242 27.011C79.0836 27.9721 79.268 29.0202 79.2779 30.1559C79.268 32.1167 78.7775 33.7764 77.8061 35.1354C76.8348 36.4943 75.4459 37.5279 73.6392 38.2366C71.8421 38.9451 69.6809 39.2995 67.1555 39.2995C64.5621 39.2995 62.2987 38.916 60.3658 38.1493C58.4425 37.3824 56.9466 36.203 55.8782 34.6112C54.8194 33.0097 54.2852 30.9616 54.2756 28.4671H61.9686C62.017 29.3794 62.2453 30.1463 62.6534 30.7674C63.0612 31.3888 63.6344 31.8595 64.3725 32.1797C65.1205 32.5001 66.0094 32.6602 67.0388 32.6602C67.9033 32.6602 68.627 32.5534 69.2099 32.34C69.7927 32.1264 70.2346 31.8304 70.5357 31.4517C70.8369 31.0733 70.9922 30.6414 71.002 30.1559C70.9922 29.6998 70.8416 29.3019 70.5503 28.962C70.2686 28.6127 69.8023 28.3021 69.1516 28.0303C68.5007 27.7488 67.6216 27.4866 66.5144 27.2441L63.5421 26.6035C60.9 26.0307 58.8165 25.0746 57.2914 23.7351C55.7762 22.386 55.0233 20.5465 55.0332 18.217C55.0233 16.3243 55.5284 14.6694 56.5484 13.2522C57.578 11.8254 59.0011 10.714 60.8175 9.91805C62.6435 9.12212 64.7368 8.72415 67.0973 8.72415C69.5061 8.72415 71.5896 9.12698 73.3477 9.93261C75.1058 10.7382 76.4608 11.8739 77.4129 13.3396C78.3744 14.7955 78.8602 16.499 78.8698 18.45H71.1186ZM80.3079 38.95V9.13183H101.813V15.6545H88.4088V20.7796H100.706V27.3023H88.4088V32.4273H101.755V38.95H80.3079ZM103.78 38.95V9.13183H116.66C118.874 9.13183 120.812 9.53464 122.473 10.3403C124.134 11.1459 125.426 12.3058 126.349 13.82C127.271 15.3342 127.733 17.1493 127.733 19.2654C127.733 21.4008 127.257 23.2013 126.305 24.667C125.363 26.1326 124.037 27.2392 122.327 27.9866C120.628 28.734 118.641 29.1078 116.368 29.1078H108.675V22.8179H114.736C115.688 22.8179 116.499 22.7015 117.17 22.4684C117.849 22.2259 118.369 21.8423 118.728 21.3182C119.098 20.7942 119.282 20.1098 119.282 19.2654C119.282 18.4112 119.098 17.7172 118.728 17.1833C118.369 16.6398 117.849 16.2418 117.17 15.9894C116.499 15.7273 115.688 15.5963 114.736 15.5963H111.881V38.95H103.78ZM121.264 25.264L128.724 38.95H119.923L112.638 25.264H121.264ZM136.372 9.13183L142.492 30.1559H142.725L148.844 9.13183H157.994L148.145 38.95H137.071L127.222 9.13183H136.372ZM166.918 9.13183V38.95H158.817V9.13183H166.918ZM196.564 20.3136H188.346C188.288 19.6342 188.132 19.0178 187.88 18.4646C187.637 17.9113 187.297 17.4357 186.86 17.0377C186.432 16.6301 185.913 16.3194 185.301 16.1059C184.689 15.8826 183.994 15.771 183.217 15.771C181.857 15.771 180.706 16.1011 179.764 16.7611C178.832 17.4211 178.123 18.3675 177.637 19.6002C177.161 20.8329 176.923 22.3132 176.923 24.041C176.923 25.8657 177.166 27.3946 177.651 28.6272C178.147 29.8503 178.861 30.7724 179.793 31.3935C180.726 32.005 181.848 32.3109 183.159 32.3109C183.907 32.3109 184.577 32.2186 185.17 32.0341C185.762 31.84 186.277 31.5634 186.714 31.2043C187.151 30.8451 187.506 30.4132 187.778 29.9085C188.059 29.3939 188.249 28.8164 188.346 28.1758L196.564 28.234C196.466 29.496 196.112 30.782 195.5 32.0923C194.888 33.3931 194.018 34.5966 192.892 35.7032C191.775 36.8 190.391 37.6833 188.739 38.353C187.088 39.0228 185.17 39.3578 182.984 39.3578C180.245 39.3578 177.787 38.7704 175.612 37.596C173.446 36.4215 171.731 34.6938 170.468 32.4128C169.215 30.1317 168.589 27.3411 168.589 24.041C168.589 20.7214 169.23 17.9259 170.512 15.6545C171.794 13.3735 173.523 11.6506 175.699 10.4859C177.875 9.31139 180.303 8.72415 182.984 8.72415C184.869 8.72415 186.602 8.98137 188.186 9.49581C189.769 10.0103 191.158 10.7625 192.353 11.7526C193.547 12.7329 194.509 13.9414 195.238 15.3779C195.966 16.8145 196.408 18.4597 196.564 20.3136ZM198.187 38.95V9.13183H219.692V15.6545H206.288V20.7796H218.586V27.3023H206.288V32.4273H219.635V38.95H198.187Z" fill="black"/>
</svg>
